0
SECTION
2
HEADER
9
$INSUNITS
70
4
9
$ACADVER
1
AC1014
9
$HANDSEED
5
FFFF
0
ENDSEC
0
SECTION
2
TABLES
0
TABLE
2
VPORT
5
8
100
AcDbSymbolTable
0
ENDTAB
0
TABLE
2
LTYPE
5
5
100
AcDbSymbolTable
0
LTYPE
5
14
100
AcDbSymbolTableRecord
100
AcDbLinetypeTableRecord
2
BYBLOCK
70
0
0
LTYPE
5
15
100
AcDbSymbolTableRecord
100
AcDbLinetypeTableRecord
2
BYLAYER
70
0
0
LTYPE
5
16
100
AcDbSymbolTableRecord
100
AcDbLinetypeTableRecord
2
DASHED
70
0
3
Dashed __ __ __ __ __ __ __ __ __ __ __ __ __ _
72
65
73
2
40
0.75
49
0.5
74
0
49
-0.25
74
0
0
ENDTAB
0
TABLE
2
LAYER
5
2
100
AcDbSymbolTable
70
2
0
LAYER
5
50
100
AcDbSymbolTableRecord
100
AcDbLayerTableRecord
2
0
70
0
62
7
6
CONTINUOUS
0
ENDTAB
0
TABLE
2
STYLE
5
3
100
AcDbSymbolTable
70
1
0
STYLE
5
11
100
AcDbSymbolTableRecord
100
AcDbTextStyleTableRecord
2
STANDARD
70
0
0
ENDTAB
0
TABLE
2
VIEW
5
6
100
AcDbSymbolTable
70
0
0
ENDTAB
0
TABLE
2
UCS
5
7
100
AcDbSymbolTable
70
0
0
ENDTAB
0
TABLE
2
APPID
5
9
100
AcDbSymbolTable
70
2
0
APPID
5
12
100
AcDbSymbolTableRecord
100
AcDbRegAppTableRecord
2
ACAD
70
0
0
ENDTAB
0
TABLE
2
DIMSTYLE
5
A
100
AcDbSymbolTable
70
1
0
ENDTAB
0
TABLE
2
BLOCK_RECORD
5
1
100
AcDbSymbolTable
70
1
0
BLOCK_RECORD
5
1F
100
AcDbSymbolTableRecord
100
AcDbBlockTableRecord
2
*MODEL_SPACE
0
BLOCK_RECORD
5
1B
100
AcDbSymbolTableRecord
100
AcDbBlockTableRecord
2
*PAPER_SPACE
0
ENDTAB
0
ENDSEC
0
SECTION
2
BLOCKS
0
BLOCK
5
20
100
AcDbEntity
100
AcDbBlockBegin
2
*MODEL_SPACE
0
ENDBLK
5
21
100
AcDbEntity
100
AcDbBlockEnd
0
BLOCK
5
1C
100
AcDbEntity
100
AcDbBlockBegin
2
*PAPER_SPACE
0
ENDBLK
5
1D
100
AcDbEntity
100
AcDbBlockEnd
0
ENDSEC
0
SECTION
2
ENTITIES
0
CIRCLE
5
100
100
AcDbEntity
8
0
100
AcDbCircle
10
-141.80973540253228
20
11.000000037570352
30
0
40
4
210
0
220
-0
230
1
0
CIRCLE
5
101
100
AcDbEntity
8
0
100
AcDbCircle
10
-121.80973540253299
20
20.100000037571913
30
0
40
1.25
210
0
220
-0
230
1
0
CIRCLE
5
102
100
AcDbEntity
8
0
100
AcDbCircle
10
-130.80973540253228
20
11.000000037571208
30
0
40
1.5000000000000002
210
0
220
-0
230
1
0
CIRCLE
5
103
100
AcDbEntity
8
0
100
AcDbCircle
10
-121.80973540253157
20
1.9000000375719139
30
0
40
1.25
210
0
220
-0
230
1
0
CIRCLE
5
104
100
AcDbEntity
8
0
100
AcDbCircle
10
5.4999999999999716
20
1.9000000375792525
30
0
40
1.25
210
-0
220
0
230
1
0
CIRCLE
5
105
100
AcDbEntity
8
0
100
AcDbCircle
10
14.499999999999975
20
11.000000037579252
30
0
40
1.5000000000000002
210
-0
220
0
230
1
0
CIRCLE
5
106
100
AcDbEntity
8
0
100
AcDbCircle
10
5.4999999999999716
20
20.10000003757925
30
0
40
1.25
210
-0
220
0
230
1
0
CIRCLE
5
107
100
AcDbEntity
8
0
100
AcDbCircle
10
25.499999999999972
20
11.00000003757925
30
0
40
4
210
-0
220
0
230
1
0
LINE
5
108
100
AcDbEntity
8
0
100
AcDbLine
10
0
20
0
30
0
11
37.999999999999986
21
1.7763568394002505e-14
31
0
0
LINE
5
109
100
AcDbEntity
8
0
100
AcDbLine
10
37.999999999999986
20
1.7763568394002505e-14
30
0
11
37.999999999999986
21
22.000000075140392
31
0
0
LINE
5
110
100
AcDbEntity
8
0
100
AcDbLine
10
37.999999999999986
20
22.000000075140392
30
0
11
1.7763568394002505e-14
21
22.000000075140385
31
0
0
LINE
5
111
100
AcDbEntity
8
0
100
AcDbLine
10
1.7763568394002505e-14
20
22.000000075140385
30
0
11
-5.6548667764615956
21
21.223261304686545
31
0
0
SPLINE
5
112
100
AcDbEntity
8
0
100
AcDbSpline
70
4
71
5
72
13
73
7
74
0
42
0.000000001
43
0.0000000001
44
0.0000000001
40
0.89695457365473275
40
0.89695457365473275
40
0.89695457365473275
40
0.89695457365473275
40
0.89695457365473275
40
0.89695457365473275
40
0.89999999999999991
40
0.94545693801273922
40
0.94545693801273922
40
0.94545693801273922
40
0.94545693801273922
40
0.94545693801273922
40
0.94545693801273922
41
1
41
1
41
1
41
1
41
1
41
1
41
1
10
-7.9218820716330089
20
20.572015357202446
30
0
10
-7.8931511287543294
20
20.57995791397402
30
0
10
-7.4357055168999615
20
20.706572050739823
30
0
10
-6.980359880313614
20
20.835074479676905
30
0
10
-6.5270990381510536
20
20.965451550208041
30
0
10
-6.0759111324769455
20
21.097692599707297
30
0
10
-5.6548667764613967
20
21.223261304686609
30
0
0
SPLINE
5
113
100
AcDbEntity
8
0
100
AcDbSpline
70
4
71
5
72
20
73
14
74
0
42
0.000000001
43
0.0000000001
44
0.0000000001
40
0
40
0
40
0
40
0
40
0
40
0
40
0.10000000000000001
40
0.20000000000000001
40
0.30000000000000004
40
0.40000000000000002
40
0.5
40
0.59999999999999998
40
0.69999999999999996
40
0.79999999999999993
40
0.89695457365455888
40
0.89695457365455888
40
0.89695457365455888
40
0.89695457365455888
40
0.89695457365455888
40
0.89695457365455888
41
1
41
1
41
1
41
1
41
1
41
1
41
1
41
1
41
1
41
1
41
1
41
1
41
1
41
1
10
-58.154867701263491
20
16.000000037568917
30
0
10
-56.871292030820427
20
15.954929296801602
30
0
10
-54.319634669679445
20
15.878719960826437
30
0
10
-50.538627515374785
20
15.806199649345807
30
0
10
-45.591798124059125
20
15.794492172800222
30
0
10
-39.576948981470906
20
15.931541268435112
30
0
10
-33.747532419311085
20
16.235330851595151
30
0
10
-28.121538155815582
20
16.722037230123856
30
0
10
-22.713308688932798
20
17.404557140511351
30
0
10
-17.553340874187096
20
18.276535929146071
30
0
10
-13.59193025726
20
19.117137071261237
30
0
10
-10.71171252838047
20
19.82082688897534
30
0
10
-8.836563959063982
20
20.319155127396755
30
0
10
-7.9218820716412095
20
20.572015357200186
30
0
0
SPLINE
5
114
100
AcDbEntity
8
0
100
AcDbSpline
70
4
71
5
72
20
73
14
74
0
42
0.000000001
43
0.0000000001
44
0.0000000001
40
0
40
0
40
0
40
0
40
0
40
0
40
0.10000000000000001
40
0.20000000000000001
40
0.30000000000000004
40
0.40000000000000002
40
0.5
40
0.59999999999999998
40
0.69999999999999996
40
0.79999999999999993
40
0.89695457365448117
40
0.89695457365448117
40
0.89695457365448117
40
0.89695457365448117
40
0.89695457365448117
40
0.89695457365448117
41
1
41
1
41
1
41
1
41
1
41
1
41
1
41
1
41
1
41
1
41
1
41
1
41
1
41
1
10
-58.154867701264685
20
16.000000037568917
30
0
10
-59.438443371707812
20
15.954929296801446
30
0
10
-61.990100732848788
20
15.878719960825975
30
0
10
-65.771107887153036
20
15.806199649344904
30
0
10
-70.717937278468298
20
15.79449217279863
30
0
10
-76.732786421056829
20
15.931541268432476
30
0
10
-82.562202983217517
20
16.235330851591634
30
0
10
-88.188197246713997
20
16.722037230119966
30
0
10
-93.59642671359758
20
17.404557140507883
30
0
10
-98.756394528343137
20
18.276535929143598
30
0
10
-102.71780514526995
20
19.117137071259716
30
0
10
-105.59802287414911
20
19.82082688897437
30
0
10
-107.47317144346516
20
20.319155127395963
30
0
10
-108.38785333088738
20
20.572015357199348
30
0
0
SPLINE
5
115
100
AcDbEntity
8
0
100
AcDbSpline
70
4
71
5
72
13
73
7
74
0
42
0.000000001
43
0.0000000001
44
0.0000000001
40
0.89695457365465514
40
0.89695457365465514
40
0.89695457365465514
40
0.89695457365465514
40
0.89695457365465514
40
0.89695457365465514
40
0.89999999999999991
40
0.94545693801274822
40
0.94545693801274822
40
0.94545693801274822
40
0.94545693801274822
40
0.94545693801274822
40
0.94545693801274822
41
1
41
1
41
1
41
1
41
1
41
1
41
1
10
-108.38785333089561
20
20.572015357201611
30
0
10
-108.41658427377499
20
20.579957913973381
30
0
10
-108.87402988563026
20
20.706572050739492
30
0
10
-109.32937552221752
20
20.835074479676869
30
0
10
-109.78263636438098
20
20.965451550208307
30
0
10
-110.23382427005595
20
21.097692599707862
30
0
10
-110.6548686260717
20
21.223261304687266
30
0
0
LINE
5
116
100
AcDbEntity
8
0
100
AcDbLine
10
-110.6548686260717
20
21.223261304687263
30
0
11
-116.30973540253321
21
22.000000075140861
31
0
0
LINE
5
117
100
AcDbEntity
8
0
100
AcDbLine
10
-116.30973540253321
20
22.000000075140861
30
0
11
-154.30973540253319
21
22.000000075137894
31
0
0
LINE
5
118
100
AcDbEntity
8
0
100
AcDbLine
10
-154.30973540253319
20
22.000000075137894
30
0
11
-154.30973540253149
21
-8.184564137536654e-12
31
0
0
LINE
5
119
100
AcDbEntity
8
0
100
AcDbLine
10
-154.30973540253149
20
-8.184564137536654e-12
30
0
11
-116.30973540253149
21
-5.226929999935237e-12
31
0
0
LINE
5
120
100
AcDbEntity
8
0
100
AcDbLine
10
-116.30973540253149
20
-5.226929999935237e-12
30
0
11
-110.65486862606988
21
0.77673877044924122
31
0
0
SPLINE
5
121
100
AcDbEntity
8
0
100
AcDbSpline
70
4
71
5
72
13
73
7
74
0
42
0.000000001
43
0.0000000001
44
0.0000000001
40
0.89695457365466447
40
0.89695457365466447
40
0.89695457365466447
40
0.89695457365466447
40
0.89695457365466447
40
0.89695457365466447
40
0.89999999999999991
40
0.94545693801274888
40
0.94545693801274888
40
0.94545693801274888
40
0.94545693801274888
40
0.94545693801274888
40
0.94545693801274888
41
1
41
1
41
1
41
1
41
1
41
1
41
1
10
-108.3878533308944
20
1.4279847179348408
30
0
10
-108.41658427377374
20
1.4200421611630958
30
0
10
-108.87402988562894
20
1.293428024396996
30
0
10
-109.3293755222161
20
1.1649255954596194
30
0
10
-109.78263636437946
20
1.0345485249281796
30
0
10
-110.23382427005437
20
0.90230747542861178
30
0
10
-110.65486862607008
20
0.77673877044918371
30
0
0
SPLINE
5
122
100
AcDbEntity
8
0
100
AcDbSpline
70
4
71
5
72
20
73
14
74
0
42
0.000000001
43
0.0000000001
44
0.0000000001
40
0
40
0
40
0
40
0
40
0
40
0
40
0.10000000000000001
40
0.20000000000000001
40
0.30000000000000004
40
0.40000000000000002
40
0.5
40
0.59999999999999998
40
0.69999999999999996
40
0.79999999999999993
40
0.89695457365449016
40
0.89695457365449016
40
0.89695457365449016
40
0.89695457365449016
40
0.89695457365449016
40
0.89695457365449016
41
1
41
1
41
1
41
1
41
1
41
1
41
1
41
1
41
1
41
1
41
1
41
1
41
1
41
1
10
-58.154867701263484
20
6.0000000375747558
30
0
10
-59.438443371706633
20
6.0450707783419215
30
0
10
-61.990100732847679
20
6.1212801143167823
30
0
10
-65.771107887152283
20
6.1938004257969492
30
0
10
-70.717937278467886
20
6.2055079023419086
30
0
10
-76.732786421056332
20
6.0684588067062855
30
0
10
-82.562202983216579
20
5.7646692235455355
30
0
10
-88.188197246712576
20
5.2779628450161109
30
0
10
-93.596426713595818
20
4.5954429346278447
30
0
10
-98.756394528341417
20
3.723464145992383
30
0
10
-102.71780514526837
20
2.8828630038766372
30
0
10
-105.5980228741477
20
2.1791731861621417
30
0
10
-107.4731714434639
20
1.6808449477405385
30
0
10
-108.38785333088622
20
1.4279847179371137
30
0
0
SPLINE
5
123
100
AcDbEntity
8
0
100
AcDbSpline
70
4
71
5
72
20
73
14
74
0
42
0.000000001
43
0.0000000001
44
0.0000000001
40
0
40
0
40
0
40
0
40
0
40
0
40
0.10000000000000001
40
0.20000000000000001
40
0.30000000000000004
40
0.40000000000000002
40
0.5
40
0.59999999999999998
40
0.69999999999999996
40
0.79999999999999993
40
0.89695457365458364
40
0.89695457365458364
40
0.89695457365458364
40
0.89695457365458364
40
0.89695457365458364
40
0.89695457365458364
41
1
41
1
41
1
41
1
41
1
41
1
41
1
41
1
41
1
41
1
41
1
41
1
41
1
41
1
10
-58.154867701263484
20
6.0000000375747558
30
0
10
-56.871292030820413
20
6.0450707783420725
30
0
10
-54.319634669679516
20
6.1212801143172468
30
0
10
-50.53862751537531
20
6.1938004257979244
30
0
10
-45.591798124060162
20
6.2055079023436033
30
0
10
-39.576948981471858
20
6.0684588067088558
30
0
10
-33.747532419311511
20
5.7646692235488572
30
0
10
-28.121538155815458
20
5.2779628450199905
30
0
10
-22.713308688932443
20
4.5954429346320547
30
0
10
-17.553340874186524
20
3.7234641459965676
30
0
10
-13.591930257259353
20
2.8828630038806216
30
0
10
-10.711712528379714
20
2.1791731861659152
30
0
10
-8.8365639590630476
20
1.6808449477441045
30
0
10
-7.9218820716400584
20
1.4279847179404559
30
0
0
SPLINE
5
124
100
AcDbEntity
8
0
100
AcDbSpline
70
4
71
5
72
13
73
7
74
0
42
0.000000001
43
0.0000000001
44
0.0000000001
40
0.89695457365475773
40
0.89695457365475773
40
0.89695457365475773
40
0.89695457365475773
40
0.89695457365475773
40
0.89695457365475773
40
0.89999999999999991
40
0.94545693801273989
40
0.94545693801273989
40
0.94545693801273989
40
0.94545693801273989
40
0.94545693801273989
40
0.94545693801273989
41
1
41
1
41
1
41
1
41
1
41
1
41
1
10
-7.921882071631849
20
1.4279847179381857
30
0
10
-7.8931511287534057
20
1.4200421611666847
30
0
10
-7.4357055168992758
20
1.2934280244008654
30
0
10
-6.9803598803131628
20
1.1649255954637807
30
0
10
-6.5270990381508343
20
1.0345485249326447
30
0
10
-6.0759111324769499
20
0.9023074754333924
30
0
10
-5.6548667764613949
20
0.7767387704540285
30
0
0
LINE
5
125
100
AcDbEntity
8
0
100
AcDbLine
10
-5.6548667764613931
20
0.77673877045402839
30
0
11
0
21
0
31
0
0
LINE
5
126
100
AcDbEntity
8
0
100
AcDbLine
10
-2.8274333882307801
20
0.38836938522704312
30
0
11
-2.8274333882307978
21
21.611630689913461
31
0
0
LINE
5
127
100
AcDbEntity
8
0
100
AcDbLine
10
-113.48230201430232
20
21.611630689914023
30
0
11
-113.48230201430067
21
0.38836938522200715
31
0
0
ENDSEC
0
SECTION
2
OBJECTS
0
DICTIONARY
5
C
100
AcDbDictionary
3
ACAD_GROUP
350
D
3
ACAD_MLINESTYLE
350
17
0
DICTIONARY
5
D
100
AcDbDictionary
0
DICTIONARY
5
1A
330
C
100
AcDbDictionary
0
DICTIONARY
5
17
100
AcDbDictionary
0
ENDSEC
0
EOF
